<svg id="a" xmlns="http://www.w3.org/2000/svg" viewBox="0 0 400 225"><title>vocabulary drill</title><g id="b"><g id="c"><g id="d"><path d="M323.87,103.16c-2.3,0-4.7-.1-7-.4-6.4,5.7-14.1,9.7-22.3,11.7-1.8,.5-3.6,.9-5.5,1.1-1.1,.1-2.1-.7-2.3-1.8h0c-.3-1.2,.6-1.9,1.3-2.8,3-3.4,6.5-6.3,8.8-14.4-9.9-5.6-16.3-14.4-16.3-24.2,0-17,19.4-30.9,43.3-30.9s43.3,13.8,43.3,30.9-19.4,30.9-43.3,30.8Z" fill="#405b7a"/><path d="M329.2,58.35h-5.13l-11.31,30h5.12l2.94-7.88h12l2.56,7.88h5.44l-11.62-30Zm-7,17.75l4.38-12.12h.12l4.38,12.12h-8.88Z" fill="#221f20" opacity=".15"/><path d="M326.28,55.44h-5.13l-11.31,30h5.12l2.94-7.88h12l2.56,7.88h5.44l-11.62-30Zm-7,17.75l4.38-12.12h.12l4.38,12.12h-8.88Z" fill="#fff"/></g><g id="e"><path d="M40.83,118.26c0-17.1,19.4-30.9,43.3-30.9s43.3,13.9,43.3,30.9c0,9.8-6.4,18.6-16.3,24.2,2.3,8.1,5.8,11,8.8,14.4,.7,.9,1.6,1.6,1.3,2.8h0c-.2,1.1-1.2,1.9-2.3,1.8-1.9-.2-3.7-.6-5.5-1.1-8.2-2-15.9-6-22.3-11.7-2.3,.3-4.7,.4-7,.4-23.9,.1-43.3-13.7-43.3-30.8Z" fill="#405b7a"/><path d="M87.05,128.68l10.86,10.6,2.91-2.93-10.65-10.74c1.87-2.12,3.45-4.35,4.74-6.69,1.29-2.35,2.32-4.74,3.1-7.17h5.98v-4.23h-14.81v-4.23h-4.23v4.23h-14.81v4.23h23.65c-.74,1.94-1.64,3.8-2.7,5.58-1.06,1.78-2.38,3.5-3.97,5.16-.92-1.09-1.74-2.16-2.46-3.2-.72-1.04-1.38-2.14-1.98-3.31h-4.6c.78,1.69,1.68,3.32,2.72,4.89,1.04,1.57,2.23,3.13,3.57,4.68l-10.79,10.79,2.91,2.91,10.58-10.58Z" fill="#221f20" opacity=".15"/><path d="M84.13,125.74l10.86,10.6,2.91-2.93-10.65-10.74c1.87-2.12,3.45-4.35,4.74-6.69,1.29-2.35,2.32-4.74,3.1-7.17h5.98v-4.23h-14.81v-4.23h-4.23v4.23h-14.81v4.23h23.65c-.74,1.94-1.64,3.8-2.7,5.58-1.06,1.78-2.38,3.5-3.97,5.16-.92-1.09-1.74-2.16-2.46-3.2-.72-1.04-1.38-2.14-1.98-3.31h-4.6c.78,1.69,1.68,3.32,2.72,4.89,1.04,1.57,2.23,3.13,3.57,4.68l-10.79,10.79,2.91,2.91,10.58-10.58Z" fill="#fff"/></g><g><rect x="134.43" y="26.71" width="139.14" height="173.59" fill="#9dbaf1"/><g><g opacity=".15"><rect x="150.44" y="43.37" width="112.96" height="146.09" fill="#231f20"/></g><rect x="147.52" y="40.46" width="112.96" height="146.09" fill="#fff"/></g><path d="M209.13,76.27h-25.56c-1.29,0-2.33-1.04-2.33-2.33h0v-4.66c-.01-1.33,1.01-2.43,2.33-2.53h25.56c1.32,.1,2.34,1.2,2.33,2.53v4.66c0,1.29-1.04,2.33-2.33,2.33Zm-25.47-7.19c-.05,.05-.08,.12-.09,.19v4.66h25.56v-4.65c-.01-.07-.04-.14-.09-.19h-25.38Z" fill="#5d96d4"/><path d="M177.44,75.11h-15.59c-.65,0-1.17-.52-1.17-1.17v-4.66c-.01-.68,.49-1.27,1.17-1.36h15.59c.68,.09,1.18,.68,1.17,1.36v4.66c0,.65-.52,1.17-1.17,1.17Z" fill="#b0afad"/><rect x="160.69" y="89.46" width="42.72" height="7.19" rx="1.17" ry="1.17" fill="#b0afad"/><path d="M240,97.81h-31.52c-1.29,0-2.33-1.04-2.33-2.33h0v-4.86c0-1.29,1.04-2.33,2.33-2.33h31.52c1.29,0,2.33,1.04,2.33,2.33h0v4.85c0,1.29-1.03,2.33-2.32,2.34h-.01Zm-31.57-7.19v4.85h31.57v-4.85h-31.57Z" fill="#5d96d4"/><rect x="160.58" y="111" width="24.68" height="7.19" rx="1.17" ry="1.17" fill="#b0afad"/><rect x="160.44" y="132.53" width="31.2" height="7.19" rx="1.17" ry="1.17" fill="#b0afad"/><path d="M205.23,140.89h-8.66c-1.29,0-2.33-1.04-2.33-2.33h0v-4.86c0-1.29,1.04-2.33,2.33-2.33h28.66c1.29,0,2.33,1.04,2.33,2.33h0v4.85c0,1.29-1.03,2.33-2.32,2.34h-20.01Zm-8.66-7.19v4.85h28.66v-4.85h-28.66Z" fill="#5d96d4"/><rect x="160.69" y="154.07" width="24.71" height="7.19" rx="1.17" ry="1.17" fill="#b0afad"/><path d="M207.55,162.43h-17.46c-1.29,0-2.33-1.04-2.33-2.33h0v-4.85c0-1.29,1.04-2.33,2.33-2.33h17.46c1.29,0,2.33,1.04,2.33,2.33h0v4.85c0,1.29-1.04,2.33-2.33,2.33Zm-17.46-7.19v4.85h17.46v-4.85h-17.46Z" fill="#5d96d4"/><path d="M207.85,119.35h-17.46c-1.29,0-2.33-1.04-2.33-2.33h0v-4.85c0-1.29,1.04-2.33,2.33-2.33h17.46c1.29,0,2.33,1.04,2.33,2.33h0v4.85c0,1.29-1.04,2.33-2.33,2.33Zm-17.46-7.19v4.85h17.46v-4.85h-17.46Z" fill="#5d96d4"/></g><rect width="400" height="225" fill="none"/></g></g></svg>