<svg id="a" xmlns="http://www.w3.org/2000/svg" viewBox="0 0 400 225"><title>vocabulary drill</title><g id="b"><g id="c"><g><rect x="134.43" y="26.71" width="139.14" height="173.59" fill="#edc469"/><g><g opacity=".15"><rect x="150.44" y="43.37" width="112.96" height="146.09" fill="#231f20"/></g><rect x="147.52" y="40.46" width="112.96" height="146.09" fill="#fff"/></g><path d="M209.13,76.27h-25.56c-1.29,0-2.33-1.04-2.33-2.33h0v-4.66c-.01-1.33,1.01-2.43,2.33-2.53h25.56c1.32,.1,2.34,1.2,2.33,2.53v4.66c0,1.29-1.04,2.33-2.33,2.33Zm-25.47-7.19c-.05,.05-.08,.12-.09,.19v4.66h25.56v-4.65c-.01-.07-.04-.14-.09-.19h-25.38Z" fill="#79aad3"/><path d="M177.44,75.11h-15.59c-.65,0-1.17-.52-1.17-1.17v-4.66c-.01-.68,.49-1.27,1.17-1.36h15.59c.68,.09,1.18,.68,1.17,1.36v4.66c0,.65-.52,1.17-1.17,1.17Z" fill="#b0afad"/><rect x="160.69" y="89.46" width="12.72" height="7.19" rx="1.17" ry="1.17" fill="#b0afad"/><path d="M193,97.81h-14.52c-1.29,0-2.33-1.04-2.33-2.33h0v-4.86c0-1.29,1.04-2.33,2.33-2.33h14.52c1.29,0,2.33,1.04,2.33,2.33h0v4.85c0,1.29-1.03,2.33-2.32,2.34h-.01Zm-14.57-7.19v4.85h14.57v-4.85h-14.57Z" fill="#79aad3"/><rect x="160.58" y="111" width="39.68" height="7.19" rx="1.17" ry="1.17" fill="#b0afad"/><rect x="160.44" y="132.53" width="24.2" height="7.19" rx="1.17" ry="1.17" fill="#b0afad"/><path d="M198.23,140.89h-8.66c-1.29,0-2.33-1.04-2.33-2.33h0v-4.86c0-1.29,1.04-2.33,2.33-2.33h10.66c1.29,0,2.33,1.04,2.33,2.33h0v4.85c0,1.29-1.03,2.33-2.32,2.34h-2.01Zm-8.66-7.19v4.85h10.66v-4.85h-10.66Z" fill="#79aad3"/><rect x="160.69" y="154.07" width="29.71" height="7.19" rx="1.17" ry="1.17" fill="#b0afad"/><path d="M222.55,162.43h-27.46c-1.29,0-2.33-1.04-2.33-2.33h0v-4.85c0-1.29,1.04-2.33,2.33-2.33h27.46c1.29,0,2.33,1.04,2.33,2.33h0v4.85c0,1.29-1.04,2.33-2.33,2.33Zm-27.46-7.19v4.85h27.46v-4.85h-27.46Z" fill="#79aad3"/><path d="M232.85,119.35h-27.46c-1.29,0-2.33-1.04-2.33-2.33h0v-4.85c0-1.29,1.04-2.33,2.33-2.33h27.46c1.29,0,2.33,1.04,2.33,2.33h0v4.85c0,1.29-1.04,2.33-2.33,2.33Zm-27.46-7.19v4.85h27.46v-4.85h-27.46Z" fill="#79aad3"/></g><rect width="400" height="225" fill="none"/></g></g><g><circle cx="256.02" cy="76.06" r="26.09" fill="#231f20" opacity=".14"/><g><circle cx="253.53" cy="74.16" r="26.09" transform="translate(-8.61 41.57) rotate(-9.22)" fill="#78af82"/><path d="M242.46,83.78l-1.89-1.89,7.01-7.01c-.87-1.01-1.64-2.02-2.32-3.04-.68-1.02-1.27-2.08-1.77-3.18h2.99c.39,.76,.82,1.47,1.29,2.15,.47,.68,1,1.37,1.6,2.08,1.03-1.08,1.89-2.19,2.58-3.35,.69-1.16,1.27-2.36,1.75-3.62h-15.36v-2.75h9.62v-2.75h2.75v2.75h9.62v2.75h-3.88c-.5,1.58-1.17,3.13-2.01,4.66-.84,1.52-1.86,2.97-3.07,4.35l3.37,3.4-1.03,2.78-4.36-4.19-6.87,6.87Z" fill="#fff"/><path d="M262.32,71.42h-2.82l-6.22,16.49h2.82l1.61-4.33h6.6l1.41,4.33h2.99l-6.39-16.49Zm-3.85,9.76l2.4-6.66h.07l2.4,6.66h-4.88Z" fill="#fff"/></g></g></svg>